<svg width="1920" height="2510" viewBox="0 0 1920 2510" fill="none" xmlns="http://www.w3.org/2000/svg">
<g clip-path="url(#clip0_0_3)">
<rect width="1920" height="2510" fill="url(#paint0_linear_0_3)"/>
<path d="M1049.8 28.1798C928.415 20.2465 701.144 -7.99995 610.5 0.5L659.987 -17H1649.5C1582.8 91.3744 1201.52 38.0964 1049.8 28.1798Z" fill="url(#paint1_linear_0_3)"/>
<path d="M937 49.2851C826.477 41.3522 617.036 23.7704 534.5 32.27L572.5 0H1473.5C1412.77 108.37 1075.15 59.2014 937 49.2851Z" fill="url(#paint2_linear_0_3)"/>
<path d="M732.913 53.5282C465 0 82.3517 59.5426 0 66.7599V0H1247C1186.4 92.0203 917.46 90.4002 732.913 53.5282Z" fill="url(#paint3_linear_0_3)"/>
<g filter="url(#filter0_d_0_3)">
<path d="M1602.02 156.042C1601.68 156.042 1601.34 156.054 1601.02 156.075C1600.93 155.974 1600.62 155.883 1600.15 155.819C1599.69 155.756 1599.1 155.724 1598.5 155.732C1597.9 155.739 1597.34 155.784 1596.93 155.859C1596.74 155.79 1596.43 155.732 1596.05 155.692C1595.67 155.651 1595.24 155.629 1594.79 155.628C1594.27 155.626 1593.77 155.655 1593.36 155.71V154.402C1593.26 154.268 1592.78 154.151 1592.08 154.088C1591.38 154.026 1590.54 154.026 1589.84 154.088C1589.14 154.151 1588.66 154.268 1588.56 154.402V156.861L1586.69 156.421C1586.21 156.313 1585.5 156.241 1584.71 156.222C1583.92 156.203 1583.12 156.238 1582.49 156.319C1581.73 156.415 1581.29 156.566 1581.29 156.726C1581.3 156.835 1581.49 156.941 1581.85 157.031L1588.2 158.494C1588.91 158.655 1589.56 158.822 1590.15 158.995C1591.22 159.3 1591.66 159.415 1594.08 159.415H1599.63C1601.74 159.415 1602.09 159.144 1602.33 158.941C1602.57 158.738 1602.57 158.731 1602.93 158.67C1604.36 158.413 1604.4 157.979 1604.4 157.776V156.448C1604.4 156.34 1604.15 156.237 1603.7 156.161C1603.25 156.084 1602.65 156.042 1602.02 156.042Z" fill="white"/>
</g>
<g filter="url(#filter1_d_0_3)">
<path d="M1602.02 231.374C1601.68 231.375 1601.34 231.386 1601.02 231.408C1600.93 231.307 1600.62 231.216 1600.15 231.152C1599.69 231.088 1599.1 231.057 1598.5 231.064C1597.9 231.071 1597.34 231.117 1596.93 231.191C1596.74 231.123 1596.43 231.065 1596.05 231.024C1595.67 230.984 1595.24 230.962 1594.79 230.961C1594.27 230.959 1593.77 230.987 1593.36 231.042V229.734C1593.26 229.6 1592.78 229.483 1592.08 229.421C1591.38 229.358 1590.54 229.358 1589.84 229.421C1589.14 229.483 1588.66 229.6 1588.56 229.734V232.194L1586.69 231.753C1586.21 231.645 1585.5 231.574 1584.71 231.555C1583.92 231.536 1583.12 231.571 1582.49 231.652C1581.73 231.747 1581.29 231.898 1581.29 232.058C1581.3 232.167 1581.49 232.273 1581.85 232.363L1588.2 233.827C1588.91 233.987 1589.56 234.155 1590.15 234.328C1591.22 234.633 1591.66 234.748 1594.08 234.748H1599.63C1601.74 234.748 1602.09 234.477 1602.33 234.274C1602.57 234.07 1602.57 234.064 1602.93 234.003C1604.36 233.745 1604.4 233.312 1604.4 233.108V231.781C1604.4 231.673 1604.15 231.569 1603.7 231.493C1603.25 231.417 1602.65 231.374 1602.02 231.374Z" fill="white"/>
</g>
<g filter="url(#filter2_d_0_3)">
<path d="M1602.02 120.177C1601.68 120.178 1601.34 120.189 1601.02 120.211C1600.93 120.11 1600.62 120.018 1600.15 119.955C1599.69 119.891 1599.1 119.86 1598.5 119.867C1597.9 119.874 1597.34 119.919 1596.93 119.994C1596.74 119.925 1596.43 119.868 1596.05 119.827C1595.67 119.786 1595.24 119.764 1594.79 119.763C1594.27 119.761 1593.77 119.79 1593.36 119.845V118.537C1593.26 118.403 1592.78 118.286 1592.08 118.224C1591.38 118.161 1590.54 118.161 1589.84 118.224C1589.14 118.286 1588.66 118.403 1588.56 118.537V120.997L1586.69 120.556C1586.21 120.448 1585.5 120.376 1584.71 120.357C1583.92 120.338 1583.12 120.373 1582.49 120.455C1581.73 120.55 1581.29 120.701 1581.29 120.861C1581.3 120.97 1581.49 121.076 1581.85 121.166L1588.2 122.629C1588.91 122.79 1589.56 122.957 1590.15 123.131C1591.22 123.436 1591.66 123.551 1594.08 123.551H1599.63C1601.74 123.551 1602.09 123.28 1602.33 123.076C1602.57 122.873 1602.57 122.866 1602.93 122.805C1604.36 122.548 1604.4 122.114 1604.4 121.911V120.583C1604.4 120.475 1604.15 120.372 1603.7 120.296C1603.25 120.22 1602.65 120.177 1602.02 120.177Z" fill="white"/>
</g>
</g>
<defs>
<filter id="filter0_d_0_3" x="1556.29" y="129.042" width="73.1025" height="55.374" filterUnits="userSpaceOnUse" color-interpolation-filters="sRGB">
<feFlood flood-opacity="0" result="BackgroundImageFix"/>
<feColorMatrix in="SourceAlpha" type="matrix" values="0 0 0 0 0 0 0 0 0 0 0 0 0 0 0 0 0 0 127 0" result="hardAlpha"/>
<feOffset/>
<feGaussianBlur stdDeviation="12.5"/>
<feComposite in2="hardAlpha" operator="out"/>
<feColorMatrix type="matrix" values="0 0 0 0 0.555333 0 0 0 0 0.628855 0 0 0 0 0.68 0 0 0 0.35 0"/>
<feBlend mode="normal" in2="BackgroundImageFix" result="effect1_dropShadow_0_3"/>
<feBlend mode="normal" in="SourceGraphic" in2="effect1_dropShadow_0_3" result="shape"/>
</filter>
<filter id="filter1_d_0_3" x="1556.29" y="204.374" width="73.1025" height="55.374" filterUnits="userSpaceOnUse" color-interpolation-filters="sRGB">
<feFlood flood-opacity="0" result="BackgroundImageFix"/>
<feColorMatrix in="SourceAlpha" type="matrix" values="0 0 0 0 0 0 0 0 0 0 0 0 0 0 0 0 0 0 127 0" result="hardAlpha"/>
<feOffset/>
<feGaussianBlur stdDeviation="12.5"/>
<feComposite in2="hardAlpha" operator="out"/>
<feColorMatrix type="matrix" values="0 0 0 0 0.555333 0 0 0 0 0.628855 0 0 0 0 0.68 0 0 0 0.35 0"/>
<feBlend mode="normal" in2="BackgroundImageFix" result="effect1_dropShadow_0_3"/>
<feBlend mode="normal" in="SourceGraphic" in2="effect1_dropShadow_0_3" result="shape"/>
</filter>
<filter id="filter2_d_0_3" x="1556.29" y="93.1768" width="73.1025" height="55.374" filterUnits="userSpaceOnUse" color-interpolation-filters="sRGB">
<feFlood flood-opacity="0" result="BackgroundImageFix"/>
<feColorMatrix in="SourceAlpha" type="matrix" values="0 0 0 0 0 0 0 0 0 0 0 0 0 0 0 0 0 0 127 0" result="hardAlpha"/>
<feOffset/>
<feGaussianBlur stdDeviation="12.5"/>
<feComposite in2="hardAlpha" operator="out"/>
<feColorMatrix type="matrix" values="0 0 0 0 0.555333 0 0 0 0 0.628855 0 0 0 0 0.68 0 0 0 0.35 0"/>
<feBlend mode="normal" in2="BackgroundImageFix" result="effect1_dropShadow_0_3"/>
<feBlend mode="normal" in="SourceGraphic" in2="effect1_dropShadow_0_3" result="shape"/>
</filter>
<linearGradient id="paint0_linear_0_3" x1="960.148" y1="896.175" x2="960.147" y2="2510" gradientUnits="userSpaceOnUse">
<stop stop-color="white"/>
<stop offset="1" stop-color="#D8EFFF"/>
</linearGradient>
<linearGradient id="paint1_linear_0_3" x1="659.987" y1="14.9412" x2="1649.5" y2="14.9412" gradientUnits="userSpaceOnUse">
<stop offset="0.383678" stop-color="#BCD77E"/>
<stop offset="0.996656" stop-color="#FDD966"/>
</linearGradient>
<linearGradient id="paint2_linear_0_3" x1="572.5" y1="31.94" x2="1473.5" y2="31.94" gradientUnits="userSpaceOnUse">
<stop offset="0.550527" stop-color="#FDD966"/>
<stop offset="1" stop-color="#BCD77E"/>
</linearGradient>
<linearGradient id="paint3_linear_0_3" x1="348.013" y1="33.9456" x2="1254.76" y2="33.9456" gradientUnits="userSpaceOnUse">
<stop stop-color="#FBFDFF"/>
<stop offset="1" stop-color="#D8EFFF"/>
</linearGradient>
<clipPath id="clip0_0_3">
<rect width="1920" height="2510" fill="white"/>
</clipPath>
</defs>
</svg>
